<svg xmlns="http://www.w3.org/2000/svg" viewBox="0 0 108.4 93.83"><defs><style>.cls-1{fill:#eb0a8b;}.cls-2{fill:#f39ac2;}</style></defs><title>Asset 2</title><g id="Layer_2" data-name="Layer 2"><g id="Layer_1-2" data-name="Layer 1"><path class="cls-1" d="M9.36,32.31A28,28,0,0,1,1.48,31.2L2,25.6a18.43,18.43,0,0,0,7.4,1.68V20.44l-2.28-.76C3.44,18.48.72,16.56.72,12.08c0-5.2,3.16-8.24,8.64-8.64V0H11.2V3.44a19.72,19.72,0,0,1,7,1.2L17.84,10a11.21,11.21,0,0,0-6.64-1.8V14.6c4.88,1.08,8.88,3.16,8.88,9,0,4.88-3.24,8.32-8.88,8.67v3.52H9.36Zm0-24.15a2.81,2.81,0,0,0-2.64,3.08c0,1.88,1.28,2.6,2.64,3ZM11.2,27.28a2.82,2.82,0,0,0,2.72-3.08,3,3,0,0,0-2.72-3.36Z"/><path class="cls-1" d="M22.52,25.52A12.88,12.88,0,0,0,28,26.8c3,0,4.64-1.72,4.64-4.16,0-3.24-2.64-4.32-5.64-4.32a12.32,12.32,0,0,0-4.16.72V3.92H38.92v5.2H29v4.64a12,12,0,0,1,2.64-.32c5.12,0,8.52,3.64,8.52,8.8,0,6.92-5,10.07-11,10.07a16.89,16.89,0,0,1-7-1.31Z"/><path class="cls-1" d="M52,3.44c7,0,9.52,5.84,9.52,14.44,0,8.36-2.2,14.43-9.52,14.43s-9.52-6.07-9.52-14.43C42.48,9.28,45,3.44,52,3.44Zm0,23.68c1.64,0,2.64-1.48,2.64-9.24s-1-9.24-2.64-9.24-2.64,1.48-2.64,9.24S50.36,27.12,52,27.12Z"/><path class="cls-1" d="M72.8,3.44c7,0,9.51,5.84,9.51,14.44,0,8.36-2.19,14.43-9.51,14.43s-9.52-6.07-9.52-14.43C63.28,9.28,65.8,3.44,72.8,3.44Zm0,23.68c1.64,0,2.64-1.48,2.64-9.24s-1-9.24-2.64-9.24-2.64,1.48-2.64,9.24S71.16,27.12,72.8,27.12Z"/><path class="cls-1" d="M93.32,19.24h-.08V31.83H85.72V3.92h7.52V15.24h.08L99.4,3.92h8.31L99.72,17l8.59,14.83H99.56Z"/><path class="cls-1" d="M9.36,90.31A28,28,0,0,1,1.48,89.2L2,83.6a18.43,18.43,0,0,0,7.4,1.68V78.44l-2.28-.76C3.44,76.48.72,74.56.72,70.08c0-5.2,3.16-8.24,8.64-8.64V58H11.2v3.44a19.72,19.72,0,0,1,7,1.2L17.84,68a11.21,11.21,0,0,0-6.64-1.8V72.6c4.88,1.08,8.88,3.16,8.88,9,0,4.88-3.24,8.32-8.88,8.67v3.52H9.36Zm0-24.15a2.81,2.81,0,0,0-2.64,3.08c0,1.88,1.28,2.6,2.64,3ZM11.2,85.28a2.82,2.82,0,0,0,2.72-3.08,3,3,0,0,0-2.72-3.36Z"/><path class="cls-1" d="M26.52,75.52a6.63,6.63,0,0,1-4.28-6.68c0-4.12,2.64-7.4,9-7.4,5.52,0,8.68,3.12,8.68,7.2,0,3.88-2.36,5.44-4.64,6.6,1.92.56,5.64,2,5.64,6.48,0,6.11-4.24,8.59-9.8,8.59-6,0-9.56-3.47-9.56-8.07A6.92,6.92,0,0,1,26.52,75.52Zm4.6,9.92c1.92,0,2.72-1.64,2.72-3.48a4.66,4.66,0,0,0-3.12-4.2,4.51,4.51,0,0,0-2.32,4.32C28.4,84.28,29.52,85.44,31.12,85.44Zm.2-12.24a4.21,4.21,0,0,0,2-3.56c0-1.8-.6-3.32-2.32-3.32-1.52,0-2.36,1.2-2.36,3A4.06,4.06,0,0,0,31.32,73.2Z"/><path class="cls-1" d="M52,61.44c7,0,9.52,5.84,9.52,14.44,0,8.36-2.2,14.43-9.52,14.43s-9.52-6.07-9.52-14.43C42.48,67.28,45,61.44,52,61.44Zm0,23.68c1.64,0,2.64-1.48,2.64-9.24s-1-9.24-2.64-9.24-2.64,1.48-2.64,9.24S50.36,85.12,52,85.12Z"/><path class="cls-1" d="M72.8,61.44c7,0,9.51,5.84,9.51,14.44,0,8.36-2.19,14.43-9.51,14.43s-9.52-6.07-9.52-14.43C63.28,67.28,65.8,61.44,72.8,61.44Zm0,23.68c1.64,0,2.64-1.48,2.64-9.24s-1-9.24-2.64-9.24-2.64,1.48-2.64,9.24S71.16,85.12,72.8,85.12Z"/><path class="cls-1" d="M93.32,77.24h-.08V89.83H85.72V61.92h7.52V73.24h.08L99.4,61.92h8.31L99.72,75l8.59,14.83H99.56Z"/><path class="cls-2" d="M45.66,42.42h-3.2V40.66H51.1v1.76H47.9v9.41H45.66Z"/><path class="cls-2" d="M59.85,40.47c3.51,0,5.47,2.37,5.47,5.75S63.39,52,59.85,52s-5.47-2.39-5.47-5.81S56.3,40.47,59.85,40.47Zm0,9.8c2.29,0,3.14-2,3.14-4.05s-.92-4-3.14-4-3.14,2-3.14,4S57.56,50.27,59.85,50.27Z"/><rect class="cls-2" x="74.4" y="44.84" width="34" height="2"/><rect class="cls-2" y="44.84" width="34" height="2"/></g></g></svg>