<svg xmlns="http://www.w3.org/2000/svg" viewBox="0 0 130.2 53.76"><defs><style>.cls-1{fill:#eb0a8b;}</style></defs><title>Asset 3</title><g id="Layer_2" data-name="Layer 2"><g id="Layer_1-2" data-name="Layer 1"><path class="cls-1" d="M13,48.48A42,42,0,0,1,1.14,46.8l.72-8.4A27.64,27.64,0,0,0,13,40.92V30.66L9.54,29.52C4.08,27.72,0,24.84,0,18.12c0-7.8,4.74-12.36,13-13V0h2.76V5.16c3.24,0,8.22.66,10.5,1.8l-.54,8c-2.22-1.68-5.76-2.7-10-2.7V21.9C23,23.52,29,26.64,29,35.46c0,7.32-4.86,12.48-13.32,13v5.28H13Zm0-36.24c-2,.18-4,1.56-4,4.62,0,2.82,1.92,3.9,4,4.44Zm2.76,28.68c2.34-.12,4.08-1.8,4.08-4.62,0-3.06-1.38-4.44-4.08-5Z"/><path class="cls-1" d="M57.18,14.94a12.71,12.71,0,0,0-6.66-2c-7.68,0-8.7,7.2-8.7,10.86h.12c1.5-2.28,4.08-3.12,6.84-3.12,7,0,11.1,5.22,11.1,14.34,0,7.86-5,13.44-13,13.44-12.3,0-15.3-10.32-15.3-20.4,0-9,2.28-22.92,17.28-22.92a22,22,0,0,1,8.94,1.68ZM45.84,41.16c2.58,0,3.48-2.64,3.48-6.36s-.78-6.06-3.42-6.06-3.54,2.64-3.54,6.36S43.44,41.16,45.84,41.16Z"/><path class="cls-1" d="M76.92,5.16c10.5,0,14.28,8.76,14.28,21.66,0,12.54-3.3,21.66-14.28,21.66S62.64,39.36,62.64,26.82C62.64,13.92,66.42,5.16,76.92,5.16Zm0,35.52c2.46,0,4-2.22,4-13.86S79.38,13,76.92,13s-4,2.22-4,13.86S74.46,40.68,76.92,40.68Z"/><path class="cls-1" d="M107.7,28.86h-.12v18.9H96.3V5.88h11.28v17h.12l9.12-17H129.3l-12,19.62,12.9,22.26H117.06Z"/></g></g></svg>