<svg xmlns="http://www.w3.org/2000/svg" viewBox="0 0 161.4 53.76"><defs><style>.cls-1{fill:#eb0a8b;}</style></defs><title>Asset 4</title><g id="Layer_2" data-name="Layer 2"><g id="Layer_1-2" data-name="Layer 1"><path class="cls-1" d="M13,48.48A42,42,0,0,1,1.14,46.8l.72-8.4A27.64,27.64,0,0,0,13,40.92V30.66L9.54,29.52C4.08,27.72,0,24.84,0,18.12c0-7.8,4.74-12.36,13-13V0h2.76V5.16c3.24,0,8.22.66,10.5,1.8l-.54,8c-2.22-1.68-5.76-2.7-10-2.7V21.9C23,23.52,29,26.64,29,35.46c0,7.32-4.86,12.48-13.32,13v5.28H13Zm0-36.24c-2,.18-4,1.56-4,4.62,0,2.82,1.92,3.9,4,4.44Zm2.76,28.68c2.34-.12,4.08-1.8,4.08-4.62,0-3.06-1.38-4.44-4.08-5Z"/><path class="cls-1" d="M42.48,18.12,37,23.4,32,15.78l12.72-9.9h8.52V47.76H42.48Z"/><path class="cls-1" d="M63.9,38.28a19.31,19.31,0,0,0,8.22,1.92c4.44,0,7-2.58,7-6.24,0-4.86-4-6.48-8.46-6.48a18.48,18.48,0,0,0-6.24,1.08V5.88H88.5v7.8H73.62v7a18,18,0,0,1,4-.48c7.68,0,12.78,5.46,12.78,13.2,0,10.38-7.56,15.12-16.44,15.12a25,25,0,0,1-10.44-2Z"/><path class="cls-1" d="M108.12,5.16c10.5,0,14.28,8.76,14.28,21.66,0,12.54-3.3,21.66-14.28,21.66S93.84,39.36,93.84,26.82C93.84,13.92,97.62,5.16,108.12,5.16Zm0,35.52c2.46,0,4-2.22,4-13.86s-1.5-13.86-4-13.86-4,2.22-4,13.86S105.66,40.68,108.12,40.68Z"/><path class="cls-1" d="M138.9,28.86h-.12v18.9H127.5V5.88h11.28v17h.12l9.12-17H160.5l-12,19.62,12.9,22.26H148.26Z"/></g></g></svg>