<?xml version="1.0" encoding="utf-8"?>
<!-- Generator: Adobe Illustrator 23.0.1, SVG Export Plug-In . SVG Version: 6.00 Build 0)  -->
<svg version="1.1" id="Layer_1" xmlns="http://www.w3.org/2000/svg" xmlns:xlink="http://www.w3.org/1999/xlink" x="0px" y="0px"
	 viewBox="0 0 283.43 156.25" style="enable-background:new 0 0 283.43 156.25;" xml:space="preserve">
<style type="text/css">
	.st0{fill:#FFFFFF;}
	.st1{fill:#395524;}
	.st2{fill:#A0CF67;}
	.st3{fill:#726700;}
	.st4{fill:#FFE800;}
	.st5{fill:#670053;}
	.st6{fill:#AD208E;}
	.st7{fill:#634300;}
	.st8{fill:#FBB034;}
	.st9{fill:#58595B;}
	.st10{enable-background:new    ;}
	.st11{clip-path:url(#SVGID_2_);enable-background:new    ;}
	.st12{clip-path:url(#SVGID_4_);enable-background:new    ;}
	.st13{fill:#6A0056;}
	.st14{clip-path:url(#SVGID_6_);enable-background:new    ;}
</style>
<g>
	<path class="st0" d="M271.17,113.72c-1.07,0-2.07,0.26-2.97,0.72l-0.19-7.93c-0.03-1.23-0.68-2.36-1.74-2.99
		c-0.5-0.3-1.07-0.48-1.64-0.51c0,0-0.26-7.04-0.26-7.07c0.43-0.17,0.83-0.42,1.18-0.74l2.75-2.58c0.7-0.65,1.1-1.56,1.13-2.51
		l0.37-11.79c0.03-1.04-0.38-2.04-1.15-2.75c-0.67-0.62-1.55-0.97-2.45-0.97c-0.12,0-0.25,0.01-0.37,0.02l-14.83,1.52l0.08-0.64
		c0.23-1.8-0.91-3.49-2.67-3.94c-2.5-0.65-4.53-0.96-6.25-0.96c-4.84,0.03-9.25,1.29-13.16,3.75l0.01-0.11
		c0.14-1.01-0.15-2.02-0.8-2.8c-0.65-0.78-1.6-1.25-2.61-1.29c0,0-11.86-0.51-11.91-0.51c-0.91,0-1.79,0.35-2.46,0.98l-2.75,2.58
		c-0.59,0.55-0.97,1.29-1.1,2.08l-0.32,2.1l-0.17-0.61c-0.43-1.59-1.87-2.66-3.47-2.66c-0.17,0-0.35,0.01-0.53,0.04l-10.73,1.58
		l0.15-4.63c0.03-1.04-0.39-2.04-1.15-2.75c-0.67-0.62-1.55-0.97-2.45-0.97c-0.12,0-0.25,0.01-0.37,0.02l-21.44,2.21
		c-0.78,0.08-1.52,0.42-2.09,0.96l-2.07,1.94c-1.3-0.52-2.72-0.8-4.18-0.8c-2.72,0.02-5.29,1.02-7.27,2.82
		c-0.04,0.03-0.08,0.07-0.12,0.1c-1.53-1.32-3.46-2.42-5.76-3.31c-3.35-1.24-6.8-1.86-10.35-1.86c-1.04,0-2.1,0.06-3.17,0.18
		c-4.25,0.48-8.47,1.8-12.54,3.92c-0.3,0.15-0.59,0.35-0.84,0.59l-1.42,1.33l-10.68,1.1c-1.08-2.68-2.91-4.83-5.44-6.42
		c-3.21-2.08-7.37-3.14-12.45-3.14l-0.16,0c-1.03,0.01-2,0.05-2.92,0.12l18.25-3.01c0.7-0.12,1.36-0.44,1.88-0.93l2.75-2.58
		c0.08-0.08,0.16-0.16,0.24-0.24l0.78,0.11c0.17,0.02,0.34,0.04,0.5,0.04c0.91,0,1.79-0.34,2.46-0.98l2.51-2.36l0,0.11
		c-0.01,1.11,0.5,2.16,1.37,2.85c0.64,0.51,1.43,0.77,2.23,0.77c0.29,0,0.58-0.03,0.87-0.11l8.07-2l-0.02,3.27
		c-0.01,1.13,0.52,2.2,1.42,2.88c0.63,0.48,1.4,0.74,2.18,0.74c0.33,0,0.66-0.04,0.98-0.14l10.88-3.07
		c0.56-0.16,1.07-0.45,1.49-0.84l2.08-1.96c0.7,1.23,1.22,2.47,1.55,3.71c0.32,1.2,1.24,2.15,2.43,2.51c0.34,0.1,0.7,0.16,1.05,0.16
		c0.86,0,1.7-0.31,2.37-0.89l6.02-5.25l9.65-1.37c0.73-0.1,1.42-0.43,1.96-0.94l2.21-2.08l2.4,5.85c0.57,1.38,1.9,2.23,3.33,2.23
		c0.3,0,0.6-0.04,0.9-0.11l10.91-2.82l-0.04,1.1c-0.08,1.89,1.32,3.52,3.21,3.73l12.97,1.41c0.13,0.01,0.26,0.02,0.39,0.02
		c0.91,0,1.79-0.35,2.46-0.98l2.75-2.58c0.74-0.69,1.15-1.66,1.14-2.66l-0.06-5.75c0,0,1.6,0.07,1.65,0.07
		c0.91,0,1.8-0.35,2.46-0.98l1.93-1.81l1.29,6.7c0.33,1.7,1.82,2.92,3.53,2.92c0.08,0,0.17,0,0.25-0.01l13.77-0.95
		c0.83-0.06,1.61-0.4,2.22-0.97l0.22-0.21c3.64,3.91,8.01,5.89,13.07,5.89c3.37-0.03,6.96-1.22,10.62-3.51
		c2.11-1.28,4.1-2.79,5.92-4.49c0,0,2.81-2.64,2.85-2.68c0.9-0.85,1.75-1.74,2.56-2.68c0.62-0.71,0.93-1.64,0.87-2.58l-1.09-17.3
		c-0.06-0.98-0.53-1.9-1.28-2.53c-0.65-0.55-1.47-0.84-2.31-0.84c-0.05,0-0.1,0-0.15,0c0.18-0.33,0.31-0.68,0.38-1.05l2.42-12.58
		c0.36-1.87-0.8-3.7-2.65-4.17c-4.7-1.19-7.84-1.75-9.93-1.75c-2.89,0.02-5.62,0.48-8.16,1.37c0.03-0.8-0.21-1.59-0.69-2.25
		c-0.61-0.83-1.54-1.36-2.57-1.46l-11.71-1.1c-0.11-0.01-0.22-0.02-0.34-0.02c-0.91,0-1.79,0.35-2.46,0.98l-2.75,2.58
		c-0.19,0.18-0.37,0.39-0.52,0.6l-0.79-3.71c-0.36-1.68-1.84-2.85-3.52-2.85c-0.12,0-0.23,0.01-0.35,0.02l-13.12,1.27
		c-0.79,0.08-1.54,0.41-2.12,0.96l-2.75,2.58c-0.42,0.4-0.74,0.88-0.93,1.43c-1.63-0.95-3.55-1.5-5.59-1.5
		c-1.66,0.01-3.26,0.38-4.71,1.08l0-0.37c0.01-1.02-0.41-1.99-1.16-2.68c-0.67-0.62-1.54-0.96-2.44-0.96c-0.11,0-0.22,0-0.32,0.01
		l-11.71,1.06c-0.8,0.07-1.55,0.41-2.14,0.96l-2.75,2.58c-0.25,0.24-0.46,0.5-0.64,0.79l-1.18-2.72c-0.58-1.34-1.9-2.17-3.3-2.17
		c-0.33,0-0.67,0.05-1,0.14l-12.61,3.63c-0.55,0.16-1.05,0.44-1.47,0.83l-2.32,2.18c-3.45-1.36-7.01-2.03-10.8-2.03
		c-0.01,0-0.1,0-0.11,0c-4.29,0.02-8.64,0.89-12.93,2.59c-0.09,0.04-0.18,0.08-0.27,0.12l-1.47-6.1c-0.39-1.63-1.85-2.75-3.5-2.75
		c-0.12,0-0.23,0.01-0.35,0.02l-9.63,0.94c-0.79,0.08-1.54,0.41-2.11,0.96l-2.75,2.58c-0.44,0.41-0.77,0.92-0.95,1.49l-0.99,2.98
		c-0.19-0.44-0.48-0.83-0.83-1.17c-0.67-0.62-1.55-0.97-2.45-0.97c-0.12,0-0.25,0.01-0.37,0.02l-21.45,2.21
		c-0.78,0.08-1.52,0.42-2.1,0.96l-2.75,2.58c-0.74,0.69-1.15,1.66-1.14,2.67l0.21,17.45l-2.75,1.41l0.36-28.64
		c0.01-1.06-0.44-2.07-1.24-2.76c-0.66-0.57-1.5-0.88-2.36-0.88c-0.18,0-0.36,0.01-0.54,0.04L60.11,8.46
		c-0.72,0.11-1.39,0.44-1.92,0.93l-2.75,2.58c-0.77,0.72-1.19,1.75-1.13,2.81l0.4,7.8l-7.99,0.82c-0.48-0.23-1.01-0.35-1.55-0.35
		c-0.02,0-5.96,0.1-5.96,0.1c-0.86,0.01-1.69,0.34-2.33,0.91c-0.19-0.28-0.41-0.54-0.68-0.77c-0.66-0.56-1.49-0.86-2.34-0.86
		c-0.18,0-0.36,0.01-0.53,0.04l-5.04,0.76c-0.64-0.54-1.46-0.83-2.31-0.83c-0.04,0-14.09,0.52-14.09,0.52
		c-0.87,0.03-1.7,0.38-2.33,0.97l-2.75,2.58c-0.73,0.68-1.14,1.64-1.14,2.64l0.05,9.27c0.01,1.03,0.45,2.01,1.22,2.69
		c0.66,0.58,1.51,0.9,2.38,0.9c0.15,0,0.29-0.01,0.44-0.03l1.64-0.2l-1.33,8.99c-0.16,1.11,0.2,2.24,0.98,3.04
		c0.68,0.7,1.61,1.09,2.58,1.09c0.15,0,0.29-0.01,0.44-0.03l7.34-0.9c0.68-0.08,1.32-0.36,1.85-0.8c0.07,0.09,0.15,0.17,0.24,0.25
		c0.67,0.65,1.57,1.01,2.5,1.01c0.03,0,5.51-0.12,5.51-0.12c0.63-0.01,1.25-0.19,1.79-0.52c0.65,0.62,1.52,1,2.49,1
		c0,0,6.16,0.01,6.16,0.01c0.42,0,0.83-0.07,1.22-0.21c0.39,0.14,0.79,0.21,1.21,0.21c0.2,0,0.39-0.02,0.59-0.05l9.56-1.58
		c0.62-0.1,1.2-0.38,1.68-0.77l0.36,7.05c0.05,0.99,0.51,1.92,1.27,2.56c0.65,0.56,1.48,0.86,2.33,0.86c0.13,0,0.27-0.01,0.4-0.02
		l19.43-2.2l0.04,3.27c0.01,1.05,0.48,2.04,1.29,2.72c0.57,0.48,1.27,0.75,2,0.81c-2.34,0.33-4.29,0.9-5.88,1.72
		c-0.3,0.15-0.57,0.35-0.81,0.58l-2.75,2.58c-0.14,0.13-0.27,0.28-0.39,0.43l-0.45-0.27c-0.57-0.34-1.2-0.5-1.83-0.5
		c-0.89,0-1.78,0.33-2.47,0.98L66,75.46c-0.29,0.27-0.54,0.59-0.72,0.95l-3.38,6.42l-2.31-7.37c-0.36-1.15-1.27-2.04-2.42-2.38
		c-0.33-0.1-0.67-0.15-1.01-0.15c-0.83,0-1.65,0.29-2.31,0.84l-1.82,1.52l0.36-9.05c0.04-1.03-0.36-2.03-1.11-2.75
		c-0.67-0.64-1.56-0.99-2.48-0.99c-0.1,0-0.21,0-0.31,0.01l-29.33,2.56c-0.8,0.07-1.56,0.41-2.15,0.96l-2.75,2.58
		c-0.74,0.69-1.15,1.66-1.14,2.67l0.61,50.47c0.01,1.03,0.47,2.01,1.25,2.69c0.66,0.56,1.49,0.87,2.35,0.87
		c0.17,0,0.33-0.01,0.5-0.03l18.98-2.66c-0.22,0.83-0.14,1.72,0.24,2.51c0.52,1.06,1.53,1.8,2.7,1.98l14.38,2.18
		c0.18,0.03,0.36,0.04,0.54,0.04c0.91,0,1.79-0.34,2.46-0.98l2.74-2.58c0.05-0.05,0.1-0.1,0.15-0.15l7.21,18.22
		c0.38,0.96,1.15,1.71,2.12,2.06c0.4,0.14,0.81,0.22,1.23,0.22c0.59,0,1.19-0.15,1.72-0.44l13.15-7.14
		c0.27-0.15,0.52-0.33,0.75-0.54l2.75-2.58c1.19-1.12,1.48-2.89,0.71-4.33l-4.04-7.54l1.73-0.12c0.83-0.06,1.61-0.4,2.21-0.97
		l2.75-2.58c0.78-0.73,1.19-1.77,1.13-2.84l-0.58-9.54c0.93-0.73,1.78-1.45,2.56-2.17l0.26,21.98c0.01,1.05,0.48,2.04,1.29,2.72
		c0.65,0.55,1.47,0.84,2.31,0.84c0.2,0,0.39-0.02,0.59-0.05l19.48-3.22c0.7-0.12,1.36-0.44,1.88-0.93l1.14-1.07
		c0.05,0,0.09,0,0.14,0c0.45,0,0.9-0.08,1.33-0.26l10.49-4.18c0.42-0.17,0.8-0.41,1.13-0.72l2.32-2.18
		c0.74,1.07,1.32,2.17,1.75,3.27c0.43,1.12,1.39,1.95,2.56,2.21c0.27,0.06,0.53,0.09,0.8,0.09c0.89,0,1.75-0.33,2.42-0.93
		l-0.07,1.95c-0.07,1.89,1.33,3.5,3.21,3.71l12.9,1.41c0.13,0.01,0.26,0.02,0.39,0.02c0.91,0,1.79-0.35,2.46-0.98l2.75-2.58
		c0.74-0.69,1.15-1.67,1.14-2.68l-0.01-0.87l9.97-1.65l-0.1,0.66c-0.16,1.04,0.14,2.1,0.83,2.9c0.68,0.79,1.68,1.25,2.72,1.25
		c0.01,0,10.84-0.08,10.84-0.08c0.91-0.01,1.78-0.35,2.44-0.98l2.01-1.89l1.62,6.49c0.4,1.62,1.86,2.73,3.49,2.73
		c0.14,0,0.29-0.01,0.43-0.03l13.69-1.63c0.76-0.09,1.48-0.42,2.04-0.95l2.75-2.58c0.6-0.56,0.99-1.31,1.1-2.12l0.25-1.74
		c3.36,2.3,7.22,3.46,11.57,3.46c1.75-0.01,3.51-0.28,5.25-0.8l0.01,1.05c0.01,1.05,0.48,2.04,1.29,2.72
		c0.65,0.55,1.47,0.84,2.31,0.84c0.2,0,0.39-0.02,0.59-0.05l19.48-3.22c0.7-0.12,1.36-0.44,1.88-0.93l1.76-1.65
		c1.21,1.37,2.96,2.24,4.92,2.24c3.62,0,6.57-2.97,6.57-6.62C277.74,116.69,274.8,113.72,271.17,113.72z M233.96,102.95
		c0,0-0.03-0.08-0.03-0.28c-0.02-1.94,0.78-3.87,2.42-5.86c0.77-0.51,1.5-0.82,2.22-0.93l0.08,6.96c-1.04,0.26-2.12,0.39-3.27,0.4
		C234.97,103.24,234.39,103.19,233.96,102.95z"/>
	<g>
		<path d="M100.88,146.52h-3.3l-0.7,2.08h1.11v1.15h-3.61v-1.15h1.11l2.5-6.98h-1.11v-1.03h4.68v1.03h-1.15l2.56,6.98h1.02v1.15
			h-3.59v-1.15h1.14L100.88,146.52z M100.54,145.45l-1.22-3.83h-0.12l-1.27,3.83H100.54z"/>
		<path d="M110.43,143.37v2.41h-1.12c-0.06-0.46-0.25-0.81-0.56-1.06c-0.32-0.25-0.69-0.37-1.11-0.37c-0.56,0-1.02,0.2-1.37,0.6
			c-0.35,0.4-0.53,0.92-0.53,1.56c0,0.6,0.17,1.13,0.5,1.59c0.33,0.46,0.82,0.69,1.45,0.69c0.88,0,1.51-0.42,1.91-1.25l1.03,0.49
			c-0.57,1.27-1.57,1.9-3,1.9c-1.01,0-1.8-0.34-2.38-1.03c-0.58-0.69-0.87-1.48-0.87-2.38c0-0.96,0.32-1.75,0.95-2.38
			c0.63-0.63,1.36-0.94,2.19-0.94c0.71,0,1.3,0.21,1.79,0.63v-0.45H110.43z"/>
		<path d="M117.92,148.63v1.11h-2.19v-0.78c-0.61,0.59-1.28,0.88-2.03,0.88c-0.58,0-1.08-0.19-1.51-0.57s-0.64-0.86-0.64-1.45
			c0-0.59,0.23-1.08,0.68-1.47c0.45-0.39,1-0.59,1.64-0.59c0.6,0,1.17,0.18,1.73,0.54v-0.63c0-0.33-0.03-0.58-0.09-0.75
			c-0.06-0.17-0.21-0.33-0.43-0.47s-0.52-0.21-0.89-0.21c-0.63,0-1.08,0.25-1.36,0.75l-1.2-0.32c0.53-0.99,1.45-1.49,2.75-1.49
			c0.48,0,0.89,0.06,1.24,0.19c0.35,0.13,0.61,0.3,0.78,0.5c0.17,0.2,0.29,0.42,0.35,0.66c0.06,0.24,0.09,0.62,0.09,1.13v2.95
			H117.92z M115.61,147.37c-0.54-0.42-1.09-0.63-1.64-0.63c-0.35,0-0.64,0.1-0.87,0.3c-0.23,0.2-0.35,0.46-0.35,0.78
			c0,0.3,0.1,0.55,0.31,0.75c0.2,0.2,0.48,0.3,0.83,0.3c0.61,0,1.18-0.25,1.72-0.76V147.37z"/>
		<path d="M126.49,148.63v1.11h-2.4v-0.94c-0.62,0.69-1.38,1.04-2.28,1.04c-0.83,0-1.56-0.28-2.19-0.85
			c-0.63-0.57-0.94-1.37-0.94-2.42c0-1.05,0.32-1.88,0.97-2.48c0.65-0.61,1.37-0.91,2.19-0.91c0.86,0,1.61,0.34,2.25,1.03v-2.52
			h-1.23v-1.11h2.48v8.05H126.49z M120.02,146.55c0,0.7,0.2,1.24,0.6,1.62c0.4,0.38,0.87,0.57,1.43,0.57c0.54,0,1.01-0.2,1.43-0.6
			c0.41-0.4,0.62-0.95,0.62-1.65c0-0.71-0.21-1.24-0.64-1.6c-0.42-0.36-0.9-0.54-1.43-0.54c-0.57,0-1.04,0.21-1.43,0.64
			C120.22,145.41,120.02,145.93,120.02,146.55z"/>
		<path d="M133.75,146.87h-5.36c0.08,0.59,0.31,1.06,0.7,1.43c0.39,0.36,0.88,0.55,1.48,0.55c0.87,0,1.57-0.35,2.07-1.05l1.11,0.49
			c-0.36,0.56-0.83,0.97-1.4,1.24c-0.58,0.27-1.18,0.41-1.8,0.41c-0.97,0-1.81-0.3-2.5-0.91c-0.69-0.61-1.04-1.43-1.04-2.46
			c0-0.98,0.34-1.79,1.01-2.42c0.67-0.63,1.45-0.95,2.32-0.95c0.86,0,1.63,0.31,2.33,0.92
			C133.37,144.73,133.73,145.65,133.75,146.87z M132.46,145.96c-0.09-0.45-0.32-0.85-0.7-1.21c-0.38-0.36-0.84-0.54-1.39-0.54
			c-0.5,0-0.93,0.16-1.28,0.49s-0.57,0.75-0.65,1.27H132.46z"/>
		<path d="M135.75,148.63v-4.15h-1.06v-1.11H137v0.8c0.75-0.6,1.49-0.9,2.22-0.9c0.73,0,1.23,0.33,1.5,0.99
			c0.83-0.66,1.6-0.99,2.32-0.99c0.41,0,0.75,0.09,1.02,0.27c0.27,0.18,0.44,0.41,0.54,0.69c0.09,0.28,0.14,0.69,0.14,1.23v3.16
			h1.11v1.11h-2.36v-4.05c0-0.37-0.02-0.63-0.05-0.78c-0.03-0.15-0.12-0.28-0.25-0.38s-0.29-0.15-0.48-0.15
			c-0.54,0-1.14,0.27-1.82,0.82v3.42h1.09v1.11h-2.34v-4.17c0-0.42-0.06-0.72-0.18-0.91s-0.33-0.28-0.61-0.28
			c-0.47,0-1.08,0.27-1.83,0.82v3.42h1.12v1.11h-3.51v-1.11H135.75z"/>
		<path d="M149.19,149.63l-2.09-5.15h-1.06v-1.11h3.16v1.11h-0.76l1.38,3.53l1.35-3.53h-0.84v-1.11h3.09v1.11h-0.95l-3.15,8.12
			h-2.11v-1.09h1.24L149.19,149.63z"/>
		<path d="M157.4,146.55c0-0.98,0.33-1.79,0.97-2.42c0.65-0.63,1.44-0.95,2.38-0.95c0.92,0,1.71,0.31,2.36,0.93
			c0.66,0.62,0.99,1.43,0.99,2.43s-0.33,1.81-0.98,2.44c-0.66,0.62-1.45,0.94-2.37,0.94c-0.95,0-1.74-0.32-2.39-0.95
			C157.73,148.34,157.4,147.54,157.4,146.55z M158.73,146.55c0,0.63,0.2,1.14,0.59,1.55c0.39,0.4,0.87,0.6,1.44,0.6
			c0.58,0,1.06-0.2,1.45-0.61s0.58-0.92,0.58-1.54c0-0.62-0.2-1.14-0.59-1.54s-0.87-0.61-1.44-0.61c-0.59,0-1.07,0.21-1.46,0.62
			C158.92,145.43,158.73,145.94,158.73,146.55z"/>
		<path d="M165.92,148.63v-4.16h-0.93v-1.11h0.93v-0.92c0-0.78,0.16-1.31,0.49-1.61c0.33-0.3,0.72-0.44,1.17-0.44
			c0.97,0,1.53,0.49,1.68,1.47l-1.11,0.17c-0.04-0.41-0.2-0.61-0.48-0.61c-0.19,0-0.32,0.06-0.39,0.19s-0.11,0.41-0.11,0.83v0.92
			h1.09v1.11h-1.09v4.16h1.21v1.11h-3.39v-1.11H165.92z"/>
		<path d="M173.49,148.6v-6.87h-1.19v-1.15h7.61v2.76h-1.13v-1.61h-3.91v2.73h3.4v1.15h-3.4v3h3.91v-1.67h1.13v2.81h-7.61v-1.15
			H173.49z"/>
		<path d="M187.35,148.63v1.11h-2.19v-0.78c-0.61,0.59-1.28,0.88-2.03,0.88c-0.58,0-1.08-0.19-1.51-0.57
			c-0.43-0.38-0.64-0.86-0.64-1.45c0-0.59,0.23-1.08,0.68-1.47s1-0.59,1.64-0.59c0.6,0,1.17,0.18,1.73,0.54v-0.63
			c0-0.33-0.03-0.58-0.09-0.75c-0.06-0.17-0.21-0.33-0.43-0.47c-0.23-0.14-0.52-0.21-0.89-0.21c-0.63,0-1.08,0.25-1.36,0.75
			l-1.2-0.32c0.53-0.99,1.45-1.49,2.75-1.49c0.48,0,0.89,0.06,1.24,0.19c0.35,0.13,0.61,0.3,0.78,0.5c0.17,0.2,0.29,0.42,0.35,0.66
			s0.09,0.62,0.09,1.13v2.95H187.35z M185.04,147.37c-0.54-0.42-1.09-0.63-1.64-0.63c-0.35,0-0.64,0.1-0.87,0.3
			s-0.35,0.46-0.35,0.78c0,0.3,0.1,0.55,0.31,0.75c0.2,0.2,0.48,0.3,0.83,0.3c0.61,0,1.18-0.25,1.72-0.76V147.37z"/>
		<path d="M189.1,148.63v-4.15h-1.29v-1.11h2.29v1.44c0.14-0.37,0.33-0.68,0.59-0.93c0.25-0.25,0.51-0.41,0.79-0.49
			c0.28-0.08,0.66-0.12,1.14-0.12h0.33v1.26h-0.25c-0.64,0-1.11,0.06-1.43,0.19c-0.31,0.13-0.55,0.36-0.7,0.7
			c-0.15,0.34-0.23,0.94-0.23,1.81v1.4h1.39v1.11h-3.93v-1.11H189.1z"/>
		<path d="M194.55,148.63v-6.93h-1.13v-1.11h2.38v8.05h0.97v1.11h-3.36v-1.11H194.55z"/>
		<path d="M200.35,149.63l-2.09-5.15h-1.06v-1.11h3.15v1.11h-0.76l1.38,3.53l1.35-3.53h-0.84v-1.11h3.09v1.11h-0.95l-3.15,8.12
			h-2.11v-1.09h1.25L200.35,149.63z"/>
		<path d="M209.6,148.6v-6.87h-1.19v-1.15h7.61v2.76h-1.13v-1.61h-3.91v2.73h3.4v1.15h-3.4v3h3.91v-1.67h1.13v2.81h-7.61v-1.15
			H209.6z"/>
		<path d="M224.87,148.63v1.11h-2.4v-0.94c-0.62,0.69-1.38,1.04-2.28,1.04c-0.83,0-1.56-0.28-2.19-0.85s-0.94-1.37-0.94-2.42
			c0-1.05,0.32-1.88,0.97-2.48c0.65-0.61,1.37-0.91,2.19-0.91c0.86,0,1.61,0.34,2.25,1.03v-2.52h-1.23v-1.11h2.48v8.05H224.87z
			 M218.41,146.55c0,0.7,0.2,1.24,0.6,1.62c0.4,0.38,0.87,0.57,1.43,0.57c0.54,0,1.01-0.2,1.43-0.6s0.62-0.95,0.62-1.65
			c0-0.71-0.21-1.24-0.64-1.6s-0.9-0.54-1.43-0.54c-0.57,0-1.04,0.21-1.43,0.64C218.6,145.41,218.41,145.93,218.41,146.55z"/>
		<path d="M232.37,148.63v1.11h-2.35v-0.73c-0.73,0.56-1.44,0.84-2.11,0.84c-0.43,0-0.78-0.09-1.06-0.28
			c-0.28-0.19-0.46-0.43-0.56-0.72c-0.09-0.3-0.14-0.77-0.14-1.43v-2.93h-0.9v-1.11h2.15v3.89c0,0.47,0.01,0.79,0.04,0.95
			s0.1,0.3,0.23,0.4s0.29,0.16,0.48,0.16c0.58,0,1.2-0.28,1.86-0.83v-3.45h-1.13v-1.11h2.38v5.26H232.37z"/>
		<path d="M239.02,143.37v2.41h-1.12c-0.06-0.46-0.25-0.81-0.56-1.06c-0.32-0.25-0.69-0.37-1.11-0.37c-0.56,0-1.02,0.2-1.37,0.6
			c-0.35,0.4-0.53,0.92-0.53,1.56c0,0.6,0.17,1.13,0.5,1.59c0.33,0.46,0.82,0.69,1.45,0.69c0.88,0,1.51-0.42,1.91-1.25l1.03,0.49
			c-0.57,1.27-1.57,1.9-3,1.9c-1.01,0-1.8-0.34-2.38-1.03c-0.58-0.69-0.87-1.48-0.87-2.38c0-0.96,0.32-1.75,0.95-2.38
			c0.63-0.63,1.36-0.94,2.19-0.94c0.71,0,1.3,0.21,1.79,0.63v-0.45H239.02z"/>
		<path d="M246.52,148.63v1.11h-2.19v-0.78c-0.61,0.59-1.28,0.88-2.03,0.88c-0.58,0-1.08-0.19-1.51-0.57
			c-0.43-0.38-0.64-0.86-0.64-1.45c0-0.59,0.23-1.08,0.68-1.47s1-0.59,1.64-0.59c0.6,0,1.17,0.18,1.73,0.54v-0.63
			c0-0.33-0.03-0.58-0.09-0.75c-0.06-0.17-0.21-0.33-0.43-0.47c-0.23-0.14-0.52-0.21-0.89-0.21c-0.63,0-1.08,0.25-1.36,0.75
			l-1.2-0.32c0.53-0.99,1.45-1.49,2.75-1.49c0.48,0,0.89,0.06,1.24,0.19c0.35,0.13,0.61,0.3,0.78,0.5c0.17,0.2,0.29,0.42,0.35,0.66
			s0.09,0.62,0.09,1.13v2.95H246.52z M244.2,147.37c-0.54-0.42-1.09-0.63-1.64-0.63c-0.35,0-0.64,0.1-0.87,0.3
			c-0.23,0.2-0.35,0.46-0.35,0.78c0,0.3,0.1,0.55,0.31,0.75c0.2,0.2,0.48,0.3,0.83,0.3c0.61,0,1.18-0.25,1.72-0.76V147.37z"/>
		<path d="M247.09,144.48v-1.11h0.83v-0.98l1.25-1.15v2.13h1.18v1.11h-1.18v3.09c0,0.5,0.03,0.8,0.08,0.92
			c0.06,0.12,0.19,0.17,0.41,0.17c0.23,0,0.46-0.04,0.68-0.13v1.14c-0.32,0.11-0.64,0.17-0.96,0.17c-0.38,0-0.69-0.08-0.93-0.25
			s-0.39-0.38-0.45-0.64c-0.06-0.25-0.09-0.69-0.09-1.32v-3.16H247.09z"/>
		<path d="M252.19,148.63v-4.15h-0.99v-1.11h2.24v5.26h0.99v1.11h-3.23v-1.11H252.19z M252.01,141.2c0-0.2,0.07-0.38,0.21-0.53
			c0.14-0.15,0.32-0.22,0.54-0.22c0.21,0,0.38,0.07,0.53,0.22s0.22,0.32,0.22,0.53c0,0.21-0.07,0.39-0.22,0.54s-0.33,0.22-0.53,0.22
			c-0.21,0-0.39-0.08-0.54-0.22C252.08,141.58,252.01,141.41,252.01,141.2z"/>
		<path d="M255.21,146.55c0-0.98,0.33-1.79,0.97-2.42s1.44-0.95,2.38-0.95c0.92,0,1.71,0.31,2.36,0.93
			c0.66,0.62,0.99,1.43,0.99,2.43s-0.33,1.81-0.98,2.44c-0.66,0.62-1.45,0.94-2.37,0.94c-0.95,0-1.74-0.32-2.39-0.95
			C255.53,148.34,255.21,147.54,255.21,146.55z M256.53,146.55c0,0.63,0.2,1.14,0.59,1.55s0.87,0.6,1.44,0.6
			c0.58,0,1.06-0.2,1.45-0.61s0.58-0.92,0.58-1.54c0-0.62-0.2-1.14-0.59-1.54c-0.4-0.4-0.87-0.61-1.44-0.61
			c-0.59,0-1.07,0.21-1.46,0.62S256.53,145.94,256.53,146.55z"/>
		<path d="M265.16,143.37v0.77c0.8-0.58,1.54-0.87,2.2-0.87c0.41,0,0.75,0.1,1.02,0.29c0.27,0.2,0.45,0.43,0.53,0.72
			c0.08,0.28,0.12,0.7,0.12,1.24v3.11h1.07v1.11h-2.33v-4.17c0-0.48-0.07-0.8-0.22-0.95c-0.14-0.15-0.32-0.22-0.53-0.22
			c-0.55,0-1.18,0.27-1.88,0.81v3.41h1.1v1.11h-3.47v-1.11h1.12v-4.15h-1.12v-1.11H265.16z"/>
	</g>
	<g>
		<g>
			<polygon class="st1" points="213.7,73.24 210.96,75.82 206.84,102.95 209.58,100.38 			"/>
			<polygon class="st1" points="204.62,126.17 198.08,100.01 195.33,102.59 201.88,128.75 215.56,127.12 218.31,124.54 			"/>
			<polygon class="st1" points="190.43,79.62 187.68,82.2 181.48,122.47 192.29,122.4 195.03,119.82 184.22,119.9 			"/>
		</g>
		<g>
			<polygon class="st2" points="213.7,73.24 225.46,73.74 218.31,124.54 204.62,126.17 198.08,100.01 195.03,119.82 184.22,119.9 
				190.43,79.62 203.44,77.7 209.58,100.38 			"/>
		</g>
	</g>
	<g>
		<g>
			<polygon class="st3" points="188.35,82.78 176.1,83.48 173.36,86.06 185.61,85.36 			"/>
			<polygon class="st3" points="183.6,97.03 174.88,96.99 172.13,99.57 180.86,99.61 			"/>
			<polygon class="st3" points="167.29,73.19 164.54,75.77 165.06,119.76 184.54,116.53 187.29,113.96 167.81,117.18 			"/>
		</g>
		<g>
			<polygon class="st4" points="188.72,70.98 188.35,82.78 176.1,83.48 176.36,91.11 183.3,88.95 183.6,97.03 174.88,96.99 
				174.78,105.39 186.93,99.38 187.29,113.96 167.81,117.18 167.29,73.19 			"/>
		</g>
	</g>
	<g>
		<g>
			<polygon class="st5" points="71.21,75.51 68.46,78.09 58.82,96.41 61.57,93.83 			"/>
			<polygon class="st5" points="73.32,139.94 60.83,108.38 58.08,110.95 70.58,142.52 83.73,135.38 86.47,132.8 			"/>
			<polygon class="st5" points="54.11,101.25 43.66,86.99 40.92,89.57 51.36,103.83 40.28,123.55 54.66,125.72 57.41,123.15 
				43.03,120.97 			"/>
		</g>
		<g>
			<polygon class="st6" points="71.21,75.51 82.42,82.14 68.76,99.76 86.47,132.8 73.32,139.94 60.83,108.38 57.41,123.15 
				43.03,120.97 54.11,101.25 43.66,86.99 56.15,76.54 61.57,93.83 			"/>
		</g>
	</g>
	<g>
		<g>
			<polygon class="st7" points="48.25,79.63 31.51,80.46 28.76,83.03 45.51,82.21 			"/>
			<polygon class="st7" points="41.73,95.99 29.79,95.96 27.05,98.53 38.98,98.57 			"/>
			<polygon class="st7" points="19.46,68.66 16.71,71.24 17.33,121.71 43.99,117.98 46.73,115.4 20.07,119.13 			"/>
		</g>
		<g>
			<polygon class="st8" points="48.78,66.1 48.25,79.63 31.51,80.46 31.84,89.2 41.33,86.72 41.73,95.99 29.79,95.96 29.64,105.58 
				46.27,98.67 46.73,115.4 20.07,119.13 19.46,68.66 			"/>
		</g>
	</g>
	<path class="st9" d="M270.61,120.23H271c0.44,0,0.81-0.16,0.81-0.58c0-0.3-0.21-0.59-0.81-0.59c-0.17,0-0.29,0.01-0.39,0.03V120.23
		z M270.61,122.08h-0.54v-3.36c0.28-0.04,0.55-0.08,0.95-0.08c0.51,0,0.84,0.11,1.04,0.25c0.2,0.15,0.31,0.37,0.31,0.7
		c0,0.44-0.3,0.71-0.66,0.82v0.03c0.29,0.05,0.49,0.32,0.56,0.81c0.08,0.52,0.16,0.72,0.22,0.83h-0.56
		c-0.08-0.11-0.16-0.41-0.23-0.86c-0.08-0.43-0.29-0.59-0.72-0.59h-0.38V122.08z M271.17,117.79c-1.33,0-2.41,1.14-2.41,2.54
		c0,1.43,1.08,2.56,2.42,2.56c1.34,0.01,2.41-1.12,2.41-2.54c0-1.42-1.07-2.56-2.41-2.56H271.17z M271.19,117.32
		c1.64,0,2.95,1.34,2.95,3.01c0,1.7-1.31,3.02-2.97,3.02c-1.65,0-2.98-1.33-2.98-3.02c0-1.67,1.34-3.01,2.98-3.01H271.19z"/>
	<g>
		<g>
			<path class="st7" d="M137.5,89.05c-0.01,1.45-0.63,2.56-1.54,3.41l2.74-2.58c0.91-0.85,1.53-1.96,1.54-3.41
				c0.01-2.19-1.63-2.82-3.55-2.82c-1.52,0-3.16,0.39-4.34,0.74c-0.92,0.27-1.55,0.52-1.62,0.55l-2.74,2.58
				c0.16-0.06,3.26-1.27,5.96-1.28C135.87,86.23,137.51,86.86,137.5,89.05z"/>
			<path class="st7" d="M143.81,97l2.74-2.58c-1.54,1.44-3.36,2.82-5.49,4.14l-2.74,2.58C140.45,99.82,142.28,98.44,143.81,97z"/>
			<path class="st7" d="M134.4,105.22l-2.74,2.58c5.71,3.72,9.45,7.87,11.22,12.45l2.74-2.58
				C143.84,113.1,140.11,108.95,134.4,105.22z"/>
			<polygon class="st7" points="120.99,76.78 118.25,79.36 122.49,122.01 132.98,117.83 135.72,115.25 125.23,119.44 			"/>
		</g>
		<g>
			<path class="st8" d="M141.07,98.56c4.99,0.82,9.54,3.93,13.63,9.31l-9.09,9.8c-1.77-4.58-5.51-8.73-11.22-12.45l1.33,10.03
				l-10.49,4.18l-4.24-42.65c3.7-1.93,7.48-3.12,11.32-3.56c0.93-0.1,1.85-0.15,2.77-0.16c3.07-0.01,6.1,0.54,9.09,1.64
				c4.75,1.82,7.33,4.57,7.76,8.26c0.32,2.76-0.54,5.54-2.57,8.33C147.43,93.9,144.68,96.32,141.07,98.56z M131.59,92.6
				c0.43-0.04,8.61-0.85,8.65-6.13c0.01-2.19-1.63-2.82-3.55-2.82c-2.7,0.01-5.8,1.22-5.96,1.28L131.59,92.6"/>
		</g>
	</g>
	<g>
		<polygon class="st5" points="151.56,122.43 152.64,92.71 149.9,95.28 148.81,125 161.72,126.41 164.46,123.83 		"/>
		<g>
			<polygon class="st6" points="152.64,92.71 163.98,92.88 164.46,123.83 151.56,122.43 			"/>
		</g>
	</g>
	<g>
		<g class="st10">
			<defs>
				<path id="SVGID_1_" class="st10" d="M163.69,87.05l-2.75,2.58c-1.28,1.2-3.03,1.94-4.96,1.96c-3.98,0.01-7.2-3.03-7.24-6.79
					c-0.02-1.94,0.8-3.69,2.14-4.95l2.74-2.58c-1.34,1.26-2.16,3.01-2.14,4.95c0.04,3.76,3.26,6.8,7.24,6.79
					C160.66,88.99,162.41,88.25,163.69,87.05z"/>
			</defs>
			<use xlink:href="#SVGID_1_"  style="overflow:visible;fill:#395524;"/>
			<clipPath id="SVGID_2_">
				<use xlink:href="#SVGID_1_"  style="overflow:visible;"/>
			</clipPath>
			<g class="st11">
				<path class="st1" d="M163.69,87.05l-2.75,2.58c-1.28,1.2-3.03,1.94-4.96,1.96c-3.98,0.01-7.2-3.03-7.24-6.79
					c-0.02-1.94,0.8-3.69,2.14-4.95l2.75-2.58c-1.34,1.26-2.16,3.01-2.14,4.95c0.04,3.76,3.26,6.8,7.24,6.79
					C160.66,88.99,162.41,88.25,163.69,87.05"/>
			</g>
		</g>
		<g>
			<path class="st2" d="M158.6,75.31c3.96-0.01,7.2,3.03,7.23,6.8c0.04,3.78-3.14,6.87-7.09,6.9c-3.98,0.01-7.2-3.03-7.24-6.79
				C151.45,78.43,154.63,75.34,158.6,75.31z"/>
		</g>
	</g>
	<g>
		<g>
			<path class="st3" d="M95.93,99.91c-0.97,0.91-2.02,1.8-3.16,2.67s-2.37,1.72-3.68,2.55l-2.74,2.58c2.63-1.66,4.91-3.4,6.84-5.22
				L95.93,99.91C95.93,99.91,95.93,99.91,95.93,99.91L95.93,99.91z"/>
			<path class="st3" d="M93.17,87.53c0,2.56-0.9,4.27-2.11,5.41l2.74-2.58c1.21-1.14,2.11-2.85,2.11-5.41
				c-0.01-3.53-2.59-4.32-4.9-4.31c-1.87,0.01-3.49,0.51-3.57,0.53l-2.75,2.58c0.08-0.03,1.7-0.53,3.57-0.53
				C90.58,83.22,93.16,84,93.17,87.53z"/>
			<polygon class="st3" points="79.09,72.3 76.35,74.87 74.82,120.71 87.08,119.84 89.83,117.27 77.56,118.13 			"/>
		</g>
		<g>
			<path class="st4" d="M104.01,82.78c0.08,8.55-4.89,16-14.92,22.35l0.74,12.14l-12.26,0.86l1.53-45.84
				c2.11-1.09,5.2-1.63,9.31-1.66c0.05,0,0.09,0,0.13,0c4.34-0.01,7.84,0.84,10.49,2.56C102.31,75.25,103.96,78.46,104.01,82.78z
				 M87.51,92.65c0.59,0,8.41-0.16,8.4-7.69c-0.01-3.53-2.59-4.32-4.9-4.31c-1.87,0.01-3.49,0.51-3.57,0.53L87.51,92.65"/>
		</g>
	</g>
	<g>
		<g>
			<polygon class="st1" points="122.56,90.31 110.31,91.01 107.57,93.59 119.81,92.88 			"/>
			<polygon class="st1" points="117.8,104.56 109.08,104.51 106.33,107.09 115.05,107.13 			"/>
			<polygon class="st1" points="101.49,80.72 98.74,83.29 99.26,127.28 118.75,124.06 121.49,121.48 102.01,124.7 			"/>
		</g>
		<g>
			<polygon class="st2" points="122.93,78.51 122.56,90.31 110.31,91.01 110.56,98.63 117.51,96.47 117.8,104.56 109.08,104.51 
				108.98,112.91 121.13,106.9 121.49,121.48 102.01,124.7 101.49,80.72 			"/>
		</g>
	</g>
	<g>
		<polygon class="st5" points="265.84,89.99 253.59,90.69 250.85,93.27 263.09,92.57 		"/>
		<polygon class="st5" points="261.08,104.24 252.36,104.21 249.61,106.78 258.34,106.82 		"/>
		<polygon class="st5" points="244.77,80.4 242.02,82.98 242.54,126.97 262.03,123.74 264.77,121.16 245.29,124.39 		"/>
	</g>
	<g>
		<polygon class="st6" points="266.21,78.2 265.84,89.99 253.59,90.69 253.85,98.31 260.79,96.16 261.08,104.24 252.36,104.21 
			252.26,112.6 264.41,106.6 264.77,121.16 245.29,124.39 244.77,80.4 		"/>
	</g>
	<g>
		<g>
			<path class="st7" d="M242.82,92.92l2.74-2.58c-1.12-0.46-2.36-0.69-3.67-0.69c-2.29,0.01-4.48,1.03-6.63,3.05l-2.74,2.58
				c2.15-2.01,4.34-3.03,6.63-3.05C240.46,92.22,241.69,92.45,242.82,92.92z"/>
			<path class="st7" d="M242.15,119.41c-1.93,0.77-3.84,1.15-5.74,1.17c-4.88,0.02-8.98-1.74-12.37-5.27
				c-3.49-3.61-5.27-8.15-5.32-13.61c-0.07-7.65,2.15-14.14,6.67-19.45c0.66-0.77,1.33-1.48,2.03-2.13l-2.74,2.58
				c-0.7,0.66-1.38,1.37-2.03,2.13c-4.52,5.32-6.74,11.8-6.67,19.45c0.05,5.46,1.83,10,5.32,13.61c3.39,3.52,7.48,5.28,12.37,5.27
				c1.91-0.01,3.82-0.4,5.74-1.17c1.31-0.52,2.44-1.15,3.41-1.88c0.32-0.24,0.62-0.5,0.91-0.76l2.74-2.58
				C245.33,117.83,243.89,118.71,242.15,119.41z"/>
		</g>
		<g>
			<path class="st8" d="M242.2,74.2c1.32,0,3.09,0.27,5.32,0.85l-1.96,15.29c-1.12-0.46-2.36-0.69-3.67-0.69
				c-2.72,0.02-5.3,1.45-7.82,4.28c-2.52,2.83-3.77,5.75-3.74,8.77c0.02,1.48,0.6,2.58,1.75,3.28c0.9,0.57,2.01,0.86,3.33,0.85
				c3.58-0.02,6.78-1.04,9.66-3.05l2.06,12.29c-1.21,1.38-2.88,2.49-4.99,3.33c-1.93,0.77-3.84,1.15-5.74,1.17
				c-4.88,0.02-8.98-1.74-12.37-5.27c-3.49-3.61-5.27-8.15-5.32-13.61c-0.07-7.65,2.15-14.14,6.67-19.45
				C229.94,76.93,235.55,74.24,242.2,74.2z"/>
		</g>
	</g>
	<g>
		<g>
			<polygon class="st5" points="57.2,31.71 51.19,32.05 48.45,34.63 54.46,34.28 			"/>
			<polygon class="st5" points="54.87,38.69 50.59,38.67 47.84,41.24 52.13,41.27 			"/>
			<polygon class="st5" points="46.87,27.01 44.12,29.59 44.38,51.14 53.94,49.56 56.68,46.98 47.12,48.56 			"/>
		</g>
		<g>
			<polygon class="st6" points="57.38,25.93 57.2,31.71 51.19,32.05 51.32,35.79 54.72,34.73 54.87,38.69 50.59,38.67 50.55,42.78 
				56.51,39.83 56.68,46.98 47.12,48.56 46.87,27.01 			"/>
		</g>
	</g>
	<g>
		<g>
			<polygon class="st1" points="106.93,26.83 94.69,27.53 91.94,30.11 104.19,29.41 			"/>
			<polygon class="st1" points="102.17,41.08 93.46,41.04 90.71,43.61 99.43,43.66 			"/>
			<polygon class="st1" points="85.86,17.24 83.11,19.82 83.63,63.8 103.12,60.59 105.87,58.01 86.38,61.23 			"/>
		</g>
		<g>
			<polygon class="st2" points="107.3,15.04 106.93,26.83 94.69,27.53 94.94,35.15 101.87,32.99 102.17,41.08 93.46,41.04 
				93.35,49.43 105.5,43.44 105.87,58.01 86.38,61.23 85.86,17.24 			"/>
		</g>
	</g>
	<g>
		<g>
			<polygon class="st3" points="184.18,10.13 181.43,12.71 180.5,33.83 183.24,31.25 			"/>
			<polygon class="st3" points="182.09,57.47 171.79,32.41 169.05,34.99 179.34,60.05 192.67,56.61 195.41,54.04 			"/>
			<polygon class="st3" points="161.24,13.22 158.49,15.8 158.23,56.54 168.93,55.02 171.68,52.45 160.97,53.96 			"/>
		</g>
		<g>
			<polygon class="st4" points="195.89,9.07 195.41,54.04 182.09,57.47 171.79,32.41 171.68,52.45 160.97,53.96 161.24,13.22 
				173.85,9.58 183.24,31.25 184.18,10.13 			"/>
		</g>
	</g>
	<g>
		<g>
			<polygon class="st7" points="239.09,9.65 236.35,12.23 231.19,32.79 233.94,30.22 			"/>
			<polygon class="st7" points="227.56,55.73 222.46,29.26 219.72,31.84 224.82,58.3 238.59,57.35 241.33,54.78 			"/>
			<polygon class="st7" points="215.93,8.52 213.19,11.1 204.79,51.01 215.6,51.47 218.35,48.9 207.53,48.44 			"/>
		</g>
		<g>
			<polygon class="st8" points="229.06,7.25 233.94,30.22 239.09,9.65 250.8,10.75 241.33,54.78 227.56,55.73 222.46,29.26 
				218.35,48.9 207.53,48.44 215.93,8.52 			"/>
		</g>
	</g>
	<g>
		<g>
			<polygon class="st2" points="198.68,29.36 210.08,29.54 210.42,60.8 197.45,59.39 			"/>
		</g>
		<polygon class="st1" points="197.45,59.39 198.68,29.36 195.94,31.93 194.71,61.97 207.67,63.38 210.42,60.8 		"/>
	</g>
	<g>
		<g class="st10">
			<defs>
				<path id="SVGID_3_" class="st10" d="M209.32,23.73l-2.75,2.58c-1.28,1.2-3.03,1.95-4.96,1.97c-3.96,0.01-7.19-3.03-7.24-6.8
					c-0.02-1.93,0.8-3.69,2.14-4.94l2.74-2.58c-1.34,1.25-2.16,3.01-2.14,4.94c0.05,3.77,3.27,6.81,7.24,6.8
					C206.29,25.67,208.04,24.93,209.32,23.73z"/>
			</defs>
			<clipPath id="SVGID_4_">
				<use xlink:href="#SVGID_3_"  style="overflow:visible;"/>
			</clipPath>
			<g class="st12">
				<path class="st13" d="M209.32,23.73l-2.75,2.58c-1.28,1.2-3.03,1.95-4.96,1.97c-3.96,0.01-7.19-3.03-7.24-6.8
					c-0.02-1.93,0.8-3.69,2.14-4.94l2.75-2.58c-1.34,1.25-2.16,3.01-2.14,4.94c0.05,3.77,3.27,6.81,7.24,6.8
					C206.29,25.67,208.04,24.93,209.32,23.73"/>
			</g>
		</g>
		<g>
			<path class="st6" d="M204.22,12c3.98-0.01,7.2,3.03,7.24,6.8c0.03,3.77-3.14,6.86-7.1,6.9c-3.96,0.01-7.19-3.03-7.24-6.8
				C197.08,15.11,200.27,12.02,204.22,12z"/>
		</g>
	</g>
	<g>
		<g>
			<polygon class="st7" points="124.37,33.68 122.11,23.39 119.37,25.96 121.63,36.26 			"/>
			<polygon class="st7" points="121.17,54.76 121.24,43.74 115.65,42.79 112.9,45.37 118.5,46.32 118.43,57.33 134.89,53.26 
				137.63,50.68 			"/>
			<polygon class="st7" points="117.74,9.14 115,11.71 100.47,55.61 109.85,56.94 112.6,54.36 103.22,53.03 			"/>
		</g>
		<g>
			<path class="st8" d="M137.63,50.68l-16.46,4.08l0.07-11.02l-5.6-0.94l-3.05,11.57l-9.38-1.33l14.52-43.9l9.63-0.94L137.63,50.68z
				 M118.11,33.32l6.27,0.36l-2.26-10.29L118.11,33.32"/>
		</g>
	</g>
	<g class="st10">
		<defs>
			<path id="SVGID_5_" class="st10" d="M262.47,45.75l-2.75,2.58c0.32-0.3,0.62-0.64,0.9-1.03l2.74-2.58
				C263.08,45.11,262.78,45.45,262.47,45.75z"/>
		</defs>
		<clipPath id="SVGID_6_">
			<use xlink:href="#SVGID_5_"  style="overflow:visible;"/>
		</clipPath>
		<g class="st14">
			<path class="st13" d="M262.47,45.75l-2.74,2.58c0.32-0.3,0.62-0.64,0.9-1.03l2.74-2.58C263.08,45.11,262.78,45.45,262.47,45.75"
				/>
		</g>
	</g>
	<g>
		<path class="st13" d="M266.43,29.9l2.74-2.58c-1.58-0.73-3.74-1.09-6.5-1.09c-1.86,0.01-3.5,0.7-4.95,2.06l-2.74,2.58
			c1.45-1.36,3.09-2.04,4.95-2.06C262.69,28.81,264.86,29.17,266.43,29.9z"/>
		<polygon class="st13" points="260.62,47.29 263.37,44.72 262.34,33.81 259.6,36.39 		"/>
		<path class="st13" d="M265.85,56.49c-3.17,1.98-6.1,2.97-8.8,2.99c-4.63,0.01-8.54-2.12-11.79-6.41
			c-3.12-4.12-4.7-8.96-4.76-14.48c-0.07-7.34,2-13.42,6.2-18.22c0.53-0.6,1.07-1.17,1.63-1.7l0,0l0,0l-2.74,2.58
			c-0.56,0.53-1.11,1.09-1.63,1.7c-4.2,4.8-6.27,10.88-6.2,18.22c0.06,5.52,1.64,10.36,4.76,14.48c3.25,4.29,7.16,6.42,11.79,6.41
			c2.7-0.03,5.63-1.01,8.8-2.99c1.91-1.15,3.68-2.5,5.31-4.03l2.74-2.58C269.53,53.99,267.76,55.34,265.85,56.49z"/>
	</g>
	<g>
		<path class="st6" d="M262.58,13.11c1.72-0.01,4.71,0.54,9.02,1.64l-2.42,12.58c-1.58-0.73-3.74-1.09-6.5-1.09
			c-2.73,0.02-4.99,1.49-6.87,4.43c-1.73,2.68-2.58,5.54-2.56,8.56c0.03,1.95,0.52,3.69,1.46,5.24c1.1,1.79,2.52,2.7,4.27,2.69
			c1.75-0.01,3.21-0.83,4.39-2.45l-1.03-10.91l10.14-1.15l1.09,17.3c-2.26,2.61-4.83,4.8-7.72,6.54c-3.17,1.98-6.1,2.97-8.8,2.99
			c-4.63,0.01-8.54-2.12-11.79-6.41c-3.12-4.13-4.7-8.96-4.76-14.48c-0.07-7.34,2-13.42,6.2-18.22
			C250.9,15.58,256.2,13.15,262.58,13.11z"/>
	</g>
	<g>
		<g>
			<path class="st5" d="M148.34,31.11c-0.13,1.17-0.66,2.07-1.41,2.77l2.74-2.58c0.75-0.7,1.28-1.61,1.41-2.77
				c0.29-2.59-1.98-3.23-4.34-3.22c-2.42,0.01-4.82,0.67-4.95,0.7l-2.74,2.58c0.13-0.03,2.53-0.69,4.95-0.7
				C146.37,27.88,148.63,28.53,148.34,31.11z"/>
			<path class="st5" d="M156.74,37.83l2.75-2.58c-2.04,1.92-4.66,3.65-7.86,5.19l-2.74,2.58C152.07,41.48,154.69,39.75,156.74,37.83
				z"/>
			<path class="st5" d="M154.15,59.91c-1.28-4.73-4.57-9.24-9.86-13.54l-2.74,2.58c5.29,4.3,8.58,8.81,9.86,13.54l10.08-8.79
				l2.75-2.58L154.15,59.91z"/>
			<polygon class="st5" points="133.93,16.68 131.19,19.25 130.95,62.12 141.83,59.05 144.58,56.47 133.69,59.54 			"/>
		</g>
		<g>
			<path class="st6" d="M151.63,40.44c4.88,1.34,9.08,4.9,12.6,10.68l-10.08,8.79c-1.28-4.73-4.57-9.24-9.86-13.54l0.28,10.1
				l-10.88,3.07l0.24-42.87c3.88-1.53,7.76-2.32,11.63-2.34c4.12-0.01,7.96,0.88,11.64,2.7c4.54,2.31,6.83,5.32,6.87,9.03
				c0.03,2.79-1.12,5.46-3.44,8.02C158.45,36.47,155.45,38.6,151.63,40.44z M151.09,28.53c0.29-2.59-1.98-3.23-4.34-3.22
				c-2.42,0.01-4.82,0.67-4.95,0.7l0.05,7.71C142.36,33.72,150.52,33.62,151.09,28.53"/>
		</g>
	</g>
	<polygon class="st3" points="62.91,56.62 60.65,12.02 57.91,14.6 60.16,59.2 85.88,56.29 88.63,53.71 	"/>
	<g>
		<polygon class="st4" points="88.28,36.97 88.63,53.71 62.91,56.62 60.65,12.02 73.72,10.03 73.29,44.65 		"/>
	</g>
	<g>
		<g>
			<polygon class="st5" points="25.25,34.57 21.37,35.21 18.63,37.79 22.51,37.15 			"/>
			<polygon class="st5" points="18.41,35 12.08,35.78 12.03,26.51 9.28,29.09 9.33,38.36 15.66,37.57 13.64,51.24 20.98,50.34 
				23.72,47.76 16.38,48.66 			"/>
		</g>
		<g>
			<polygon class="st6" points="25.98,25.99 25.25,34.57 21.37,35.21 23.72,47.76 16.38,48.66 18.41,35 12.08,35.78 12.03,26.51 			
				"/>
		</g>
	</g>
	<g>
		<g>
			<polygon class="st5" points="39.57,33.51 39.27,26.75 36.52,29.33 36.82,36.09 			"/>
			<polygon class="st5" points="38.54,48.56 38.07,38.09 34.15,38.39 31.41,40.97 35.32,40.67 35.79,51.14 41.95,51.15 44.69,48.57 
							"/>
			<polygon class="st5" points="28.41,26.85 25.67,29.43 26,50.77 31.44,50.66 34.18,48.08 28.75,48.2 			"/>
		</g>
		<g>
			<polygon class="st6" points="33.86,26.03 33.94,33.73 39.57,33.51 39.27,26.75 45.16,26.65 44.69,48.57 38.54,48.56 38.07,38.09 
				34.15,38.39 34.18,48.08 28.75,48.2 28.41,26.85 			"/>
		</g>
	</g>
</g>
</svg>
